<svg width="39" height="39" viewBox="0 0 39 39" fill="none" xmlns="http://www.w3.org/2000/svg">
<g clip-path="url(#clip0_4_299)">
<path d="M37.375 4.87501C35.8189 5.97266 34.0959 6.81219 32.2725 7.36126C31.2938 6.23597 29.9932 5.43839 28.5464 5.07639C27.0997 4.7144 25.5767 4.80546 24.1834 5.33725C22.7901 5.86904 21.5937 6.81592 20.7561 8.0498C19.9185 9.28369 19.48 10.7451 19.5 12.2363V13.8613C16.6443 13.9353 13.8146 13.302 11.2629 12.0176C8.71121 10.7333 6.51677 8.8378 4.875 6.50001C4.875 6.50001 -1.625 21.125 13 27.625C9.65336 29.8967 5.66663 31.0358 1.625 30.875C16.25 39 34.125 30.875 34.125 12.1875C34.1235 11.7349 34.08 11.2834 33.995 10.8388C35.6535 9.20319 36.8238 7.13817 37.375 4.87501Z" stroke="#757575" stroke-width="4" stroke-linecap="round" stroke-linejoin="round"/>
</g>
<defs>
<clipPath id="clip0_4_299">
<rect width="39" height="39" fill="white"/>
</clipPath>
</defs>
</svg>
